<svg width="128" height="128" viewBox="0 0 128 128" fill="none" xmlns="http://www.w3.org/2000/svg">
<path d="M7 64C7 17.0605 17.0605 7 64 7C110.939 7 121 17.0605 121 64C121 110.939 110.939 121 64 121C17.0605 121 7 110.939 7 64Z" fill="#F9F7FC"/>
<path fill-rule="evenodd" clip-rule="evenodd" d="M33.7725 2.4721C42.0693 0.628207 52.1054 0 64 0C75.8946 0 85.9307 0.628207 94.2275 2.4721C102.604 4.33366 109.63 7.52608 115.052 12.9479C120.474 18.3698 123.666 25.3962 125.528 33.7725C127.372 42.0693 128 52.1054 128 64C128 75.8946 127.372 85.9307 125.528 94.2275C123.666 102.604 120.474 109.63 115.052 115.052C109.63 120.474 102.604 123.666 94.2275 125.528C85.9307 127.372 75.8946 128 64 128C52.1054 128 42.0693 127.372 33.7725 125.528C25.3962 123.666 18.3698 120.474 12.9479 115.052C7.52608 109.63 4.33366 102.604 2.4721 94.2275C0.628207 85.9307 0 75.8946 0 64C0 52.1054 0.628207 42.0693 2.4721 33.7725C4.33366 25.3962 7.52608 18.3698 12.9479 12.9479C18.3698 7.52608 25.3962 4.33366 33.7725 2.4721ZM64 7C17.0605 7 7 17.0605 7 64C7 110.939 17.0605 121 64 121C110.939 121 121 110.939 121 64C121 17.0605 110.939 7 64 7Z" fill="#3A2268"/>
<path fill-rule="evenodd" clip-rule="evenodd" d="M56.4049 88.9558C52.5633 91.1383 47.6798 89.7934 45.4972 85.9519L26.7418 52.9398C22.9543 46.2734 27.7693 38 35.4365 38L92.5635 38C100.231 38 105.046 46.2734 101.258 52.9398L82.5028 85.9519C80.3202 89.7934 75.4367 91.1383 71.5952 88.9558C67.7536 86.7732 66.4087 81.8897 68.5912 78.0482L82.2539 54L45.7461 54L59.4088 78.0482C61.5913 81.8897 60.2464 86.7732 56.4049 88.9558Z" fill="#9271D0"/>
</svg>